#!OML:ASF H:\Terrain\Patient Classification 1\Terrain2\Thursday\justin.ASF
:FULLY-SPECIFIED
:DEGREES
2097
root 9.08588 17.3851 -21.2837 728.597 90.4015 369.676
lowerback 6.76462 -0.244478 -2.81977
upperback 3.08444 -0.386505 2.26677
thorax -0.57069 -0.196774 3.95386
lowerneck -13.91 -3.40646 -8.84775
upperneck 37.4638 -2.44764 4.17873
head 15.7982 -1.22165 3.09394
rclavicle -8.34896e-015 1.11319e-014
rhumerus -33.1648 -12.0507 -78.1951
rradius 30.5625
rwrist -6.63399
rhand -15.599 15.2553
rfingers 7.12502
rthumb 10.587 -14.458
lclavicle -8.34896e-015 1.11319e-014
lhumerus -29.947 3.65659 84.8233
lradius 34.5279
lwrist 4.8554
lhand -18.7385 21.4594
lfingers 7.12502
lthumb 7.55759 51.3044
rfemur -31.4945 -5.23388 19.5683
rtibia 51.2202
rfoot -11.4316 -3.27481
rtoes 7.39897
lfemur -0.143663 -0.197591 -22.7347
ltibia 19.8451
lfoot -14.2616 -6.6009
ltoes 10.6507
2098
root 9.18441 17.3601 -21.3258 648.678 91.3294 289.157
lowerback 6.44744 -0.168286 -3.3406
upperback 2.93298 -0.32935 1.63847
thorax -0.556705 -0.172178 3.58998
lowerneck -14.013 -3.53352 -8.84655
upperneck 37.4267 -2.72384 4.40242
head 15.8327 -1.30783 3.14217
rclavicle 3.52843e-015 -3.18055e-015
rhumerus -33.066 -13.2336 -77.9604
rradius 30.5936
rwrist -5.61788
rhand -15.2879 15.364
rfingers 7.12502
rthumb 10.887 -14.3337
lclavicle 3.52843e-015 -3.18055e-015
lhumerus -29.6947 2.67295 84.9345
lradius 34.7065
lwrist 5.50259
lhand -19.6277 21.5692
lfingers 7.12502
lthumb 6.69927 51.4433
rfemur -32.4774 -5.89223 18.2555
rtibia 48.6037
rfoot -10.3898 -2.41875
rtoes 6.1464
lfemur -0.249149 -0.195945 -24.3118
ltibia 19.5368
lfoot -14.4458 -6.50232
ltoes 10.4542
2099
root 9.30017 17.3653 -21.3187 669.684 90.8448 310.293
lowerback 6.62951 -0.245726 -2.74504
upperback 2.96289 -0.394998 1.82053
thorax -0.62572 -0.198465 3.44784
lowerneck -13.9449 -3.53097 -8.89414
upperneck 37.3958 -2.73029 4.45016
head 15.8032 -1.31087 3.16913
rclavicle 1.93815e-015 9.93923e-015
rhumerus -32.9966 -13.2135 -78.0384
rradius 30.831
rwrist -6.0797
rhand -15.9874 15.499
rfingers 7.12502
rthumb 10.2123 -14.2331
lclavicle 1.93815e-015 9.93923e-015
lhumerus -29.5814 2.42563 85.0065
lradius 34.7271
lwrist 5.60707
lhand -20.4669 21.4925
lfingers 7.12502
lthumb 5.88902 51.3907
rfemur -32.2276 -6.18588 19.0939
rtibia 45.6566
rfoot -9.70516 -1.86265
rtoes 5.78669
lfemur 0.428085 0.0627047 -23.5426
ltibia 19.3702
lfoot -14.5539 -7.04661
ltoes 11.1907
2100
root 9.42699 17.379 -21.2917 752.819 90.8781 393.761
lowerback 6.86153 -0.430228 -2.08847
upperback 3.07647 -0.585696 2.33096
thorax -0.624009 -0.287949 3.62131
lowerneck -13.8118 -3.43184 -8.99625
upperneck 37.3036 -2.56386 4.44332
head 15.7111 -1.25725 3.20867
rclavicle 9.93923e-016 2.38542e-015
rhumerus -32.7733 -11.6634 -78.7767
rradius 31.459
rwrist -9.85932
rhand -18.094 14.661
rfingers 7.12502
rthumb 8.17964 -15.1607
lclavicle 9.93923e-016 2.38542e-015
lhumerus -29.5827 2.76455 85.012
lradius 34.7971
lwrist 5.14843
lhand -20.0178 21.4539
lfingers 7.12502
lthumb 6.32265 51.3395
rfemur -31.5094 -6.21971 20.4532
rtibia 42.8032
rfoot -9.37878 -1.39944
rtoes 5.61623
lfemur 1.49296 0.30654 -22.135
ltibia 18.9003
lfoot -14.4021 -7.75771
ltoes 12.2191
2101
root 9.54981 17.3644 -21.2786 722.7 90.9314 363.5
lowerback 6.64809 -0.638876 -2.89988
upperback 3.07047 -0.910656 2.43696
thorax -0.468486 -0.462396 4.21099
lowerneck -13.763 -3.30398 -9.20863
upperneck 37.2477 -2.27625 4.33689
head 15.6489 -1.18322 3.24596
rclavicle 1.72943e-014 -1.82882e-014
rhumerus -32.4774 -11.8171 -78.2281
rradius 31.1427
rwrist -7.61216
rhand -16.2148 15.1409
rfingers 7.12502
rthumb 9.99294 -14.6019
lclavicle 1.72943e-014 -1.82882e-014
lhumerus -29.621 3.47961 84.9747
lradius 34.858
lwrist 4.57798
lhand -19.3748 21.337
lfingers 7.12502
lthumb 6.94333 51.2031
rfemur -31.4309 -6.47128 20.1074
rtibia 40.119
rfoot -9.03382 -0.691755
rtoes 3.91826
lfemur 2.12131 0.451184 -22.563
ltibia 18.2408
lfoot -14.1777 -8.03702
ltoes 11.3101
2102
root 9.66606 17.3625 -21.2733 686.75 91.2892 327.405
lowerback 6.54781 -0.731258 -3.78778
upperback 3.08063 -1.08851 2.32466
thorax -0.367302 -0.563289 4.60786
lowerneck -13.9209 -3.30424 -9.42923
upperneck 37.2899 -2.23073 4.42387
head 15.7111 -1.18648 3.33246
rclavicle 1.15295e-014 -3.18055e-015
rhumerus -32.0831 -11.0971 -78.5188
rradius 31.2312
rwrist -8.83789
rhand -17.0335 15.037
rfingers 7.12502
rthumb 9.20297 -14.7421
lclavicle 1.15295e-014 -3.18055e-015
lhumerus -29.4565 3.84123 84.9187
lradius 34.8215
lwrist 4.14926
lhand -18.923 21.1408
lfingers 7.12502
lthumb 7.3795 50.9921
rfemur -31.4689 -6.47387 19.317
rtibia 37.6912
rfoot -8.99491 -0.110065
rtoes 3.20871
lfemur 2.85363 0.46162 -23.3945
ltibia 17.381
lfoot -13.9171 -7.98744
ltoes 9.78059
